<!-- <svg xmlns="http://www.w3.org/2000/svg" aria-hidden="true" fill="currentColor" width="135" height="765" viewBox="0 0 135 765">
  <path id="katakana-profile" d="M32.544 651.088l1.152.288c.576.144 1.008.288 1.44.432l3.744.864c46.224 11.808 75.312 36.864 95.76 82.656-9.648 4.752-15.12 8.784-24.192 18.144-11.952-38.304-37.44-64.224-70.992-72.432v60.192c.144 15.264.288 18.72.864 23.76H14.4c.864-5.472 1.152-9.504 1.152-24.192v-73.44C6.624 666.928 0 660.016 0 651.232c0-9.072 7.2-16.272 16.272-16.272s16.128 7.056 16.272 16.128zm-24.48.144c0 4.464 3.744 8.208 8.208 8.208 4.32 0 8.064-3.744 8.064-8.208s-3.744-8.208-8.064-8.208c-4.464 0-8.208 3.744-8.208 8.208zm111.024-104.528v61.776h9.936v26.208c-7.92-.864-12.816-1.152-23.472-1.152H31.536c-6.192 0-10.656.144-16.56.576.432-5.04.576-7.92.576-17.424v-77.616c0-8.928 0-11.088-.576-17.856 5.04.288 10.224.432 16.992.432h73.008c11.088 0 18-.288 23.76-1.008v26.064h-9.648zm-23.04 0H38.592v61.776h57.456v-61.776zM12.96 403.44l12.528-12.96c2.448 1.584 3.168 1.872 8.064 3.024 26.784 6.48 44.784 15.12 61.2 28.944 15.984 13.392 27.504 29.52 39.168 54.864-10.944 5.616-14.832 8.64-24.192 18.144-6.768-20.736-15.552-35.856-28.224-48.528-12.24-12.096-25.344-19.44-42.624-23.904v59.76c0 13.968.144 16.56.864 24.192H13.68c1.008-6.192 1.152-10.512 1.152-24.624v-68.4c0-4.752-.432-7.344-1.872-10.512zm13.968-106.112l13.824-20.16c1.584 1.872 1.584 1.872 5.04 5.04 8.64 7.776 16.272 16.56 23.472 26.64h44.352c9.36 0 14.688-.144 19.872-.864v25.632c-5.616-.72-9.36-1.008-19.872-1.008H83.52c7.344 12.24 9.36 16.848 16.992 37.584-7.92 3.168-13.392 6.48-20.448 12.24-6.192-22.176-15.12-41.328-27.36-58.32-8.784-12.24-18.432-22.32-25.776-26.784zm55.584-35.264H54.72c1.008-6.768 1.296-14.544 1.296-29.52v-68.832c0-14.4-.288-19.872-1.296-29.52h27.792c-.72 6.912-.864 13.248-.864 29.664V232.4c0 16.128.144 20.88.864 29.664zM8.352 113.76l1.584-27.216c4.896.576 4.896.576 33.408 1.584 30.096.864 46.08 3.744 61.776 10.656 10.656 4.752 18.432 10.224 28.8 20.016-9.648 7.344-13.68 11.376-20.16 20.592-7.344-8.208-13.392-12.672-22.896-17.136-14.112-6.768-31.968-9.072-69.264-9.072-6.336 0-9.504.144-13.248.576zm-.72-40.896V45.792c5.904.864 8.208 1.008 16.704 1.152l75.456.72c-4.896-7.776-9.072-12.384-15.84-17.28-7.344-5.184-14.832-8.64-24.624-11.232C68.256 11.952 72 8.208 78.336 0c16.128 6.48 27.216 13.968 36.576 24.912 7.344 8.64 11.088 15.696 16.416 30.24 1.44 4.032 1.872 5.184 3.024 7.056l-12.96 12.384c-3.744-1.296-6.192-1.584-12.096-1.584l-85.248-.72h-5.184c-4.608 0-7.776.144-11.232.576z" />
</svg> -->

<svg xmlns="http://www.w3.org/2000/svg" aria-hidden="true" fill="#000" viewBox="0 0 395.52 83.817275830126" height="83.817275830126" width="395.52">
<g><svg viewBox="0 0 526.0390685853819 111.47644040514643" height="83.817275830126" width="395.52">
<g transform="matrix(1,0,0,1,0,15.40665710375034)">
<svg viewBox="0 0 395.52 80.66312619764575" height="80.66312619764575" width="395.52"><g>
<svg viewBox="0 0 395.52 80.66312619764575" height="80.66312619764575" width="395.52"><g>
<svg viewBox="0 0 395.52 80.66312619764575" height="80.66312619764575" width="395.52">
<g transform="matrix(1,0,0,1,0,0)">
<svg width="395.52" viewBox="0.8500000238418579 -37 182.63999938964844 37.25" height="80.66312619764575" data-palette-color="#currentColor">
<path d="M17.25 0L9.7 0 0.85-37 8.5-37 14.45-10.9 21.4-37 28.2-37 35.1-10.9 41.05-37 48.7-37 39.85 0 32.3 0 24.8-26.1 17.25 0ZM60.15 0L52.75 0 52.75-37 68.05-37Q70.25-37 72.15-36.48 74.05-35.95 75.5-34.65 76.95-33.35 77.77-31.05 78.6-28.75 78.6-25.15L78.6-25.15Q78.6-22.6 78.1-20.8 77.6-19 76.77-17.85 75.95-16.7 74.9-16 73.85-15.3 72.75-14.85L72.75-14.85 79.65 0 72.1 0 66.15-13.7Q65.55-13.7 64.77-13.73 64-13.75 63.2-13.75 62.4-13.75 61.6-13.75 60.8-13.75 60.15-13.8L60.15-13.8 60.15 0ZM60.15-30.35L60.15-19.65 66.75-19.65Q67.75-19.65 68.55-19.9 69.35-20.15 69.95-20.78 70.55-21.4 70.87-22.45 71.2-23.5 71.2-25.15L71.2-25.15Q71.2-26.7 70.87-27.73 70.55-28.75 69.95-29.33 69.35-29.9 68.55-30.13 67.75-30.35 66.75-30.35L66.75-30.35 60.15-30.35ZM91.5 0L84.1 0 84.1-37 91.5-37 91.5 0ZM113.04 0L105.64 0 105.64-30.35 95.49-30.35 95.49-37 123.24-37 123.24-30.35 113.04-30.35 113.04 0ZM135.74 0.25L135.74 0.25Q134.54 0.25 132.99 0.03 131.44-0.2 130.02-1 128.59-1.8 127.67-3.43 126.74-5.05 126.74-7.9L126.74-7.9 126.74-28.55Q126.74-31 127.49-32.65 128.24-34.3 129.49-35.25 130.74-36.2 132.24-36.6 133.74-37 135.19-37L135.19-37Q138.94-37 141.82-36.9 144.69-36.8 146.99-36.68 149.29-36.55 151.19-36.35L151.19-36.35 151.19-30.15 137.39-30.15Q135.84-30.15 134.99-29.4 134.14-28.65 134.14-27.1L134.14-27.1 134.14-21.75 148.79-21.35 148.79-15.5 134.14-15.1 134.14-10Q134.14-8.7 134.57-7.98 134.99-7.25 135.72-6.98 136.44-6.7 137.24-6.7L137.24-6.7 151.19-6.7 151.19-0.5Q148.99-0.25 146.32-0.1 143.64 0.05 140.92 0.15 138.19 0.25 135.74 0.25ZM163.99 0L156.59 0 156.59-37 171.89-37Q174.09-37 175.99-36.48 177.89-35.95 179.34-34.65 180.79-33.35 181.61-31.05 182.44-28.75 182.44-25.15L182.44-25.15Q182.44-22.6 181.94-20.8 181.44-19 180.61-17.85 179.79-16.7 178.74-16 177.69-15.3 176.59-14.85L176.59-14.85 183.49 0 175.94 0 169.99-13.7Q169.39-13.7 168.61-13.73 167.84-13.75 167.04-13.75 166.24-13.75 165.44-13.75 164.64-13.75 163.99-13.8L163.99-13.8 163.99 0ZM163.99-30.35L163.99-19.65 170.59-19.65Q171.59-19.65 172.39-19.9 173.19-20.15 173.79-20.78 174.39-21.4 174.71-22.45 175.04-23.5 175.04-25.15L175.04-25.15Q175.04-26.7 174.71-27.73 174.39-28.75 173.79-29.33 173.19-29.9 172.39-30.13 171.59-30.35 170.59-30.35L170.59-30.35 163.99-30.35Z" opacity="1" transform="matrix(1,0,0,1,0,0)" class="undefined-text-0"  id="text-0"></path></svg></g></svg></g></svg></g></svg></g><g transform="matrix(1,0,0,1,414.5626281802354,0)"><svg viewBox="0 0 111.47644040514643 111.47644040514643" height="111.47644040514643" width="111.47644040514643"><g data-palette-color="#374151"><rect width="30.470227044073358" height="111.47644040514643" stroke="transparent" data-fill-palette-color="accent" x="0" fill-opacity="1"></rect><rect width="30.470227044073358" height="111.47644040514643" stroke="transparent" data-fill-palette-color="accent" x="37.15881346838214" fill-opacity="0.75"></rect><rect width="30.470227044073358" height="111.47644040514643" stroke="transparent" data-fill-palette-color="accent" x="74.31762693676428" fill-opacity="0.5"></rect></g></svg></g></svg></g><defs></defs></svg>